<?xml version="1.0" encoding="UTF-8"?><svg id="Layer_1" xmlns="http://www.w3.org/2000/svg" width="55.44" height="28.38" viewBox="0 0 55.44 28.38"><defs><style>.cls-1{stroke-width:0px;color:#80f59d;}</style></defs><path class="cls-1" fill="currentColor" d="m11.88,4.86c1.44-1.2,4.74-3.18,6.6-3.96,1.44-.54,3.18-.9,4.8-.9,1.32,0,1.56.06,3.9.6.6.18,1.56.36,2.88.66,1.8.42,3.12,1.38,4.98,3.6q4.02.66,12.3,1.14c3.36.24,5.16.54,6.36,1.02,1.02.48,1.74,1.56,1.74,2.7,0,.96-.42,1.68-1.32,2.28-1.38.9-3.36,1.14-8.46,1.14h-6.72c.72,1.14.9,1.68.9,2.76,0,2.04-1.44,3.54-3.54,3.66.3.78.36,1.14.36,1.62,0,2.16-1.74,3.96-3.72,3.96-.3,0-.66-.06-1.26-.3.06.36.06.54.06.78,0,1.44-1.62,2.76-3.36,2.76-.6,0-1.5-.18-2.94-.66-1.44.12-1.98.12-2.82.12-2.46,0-4.26-.72-9.24-3.72-1.74-1.08-2.22-1.32-3.6-1.86-.66.66-1.14,1.02-1.62,1.2s-2.22.36-3.42.36c-1.68,0-2.4-.24-2.82-.96-1.2-2.16-1.92-6-1.92-10.62,0-4.14.54-6.54,1.62-7.56.48-.42.78-.54,1.86-.6q1.98-.12,2.22-.12c1.56,0,2.1.3,3.9,2.1.9-.06,1.2-.24,2.28-1.2Zm-4.38,1.56c0-.36-.66-.78-1.38-.78-.24,0-.42,0-.78.06h-1.2c-1.26,0-1.68.18-1.98.9-.36.96-.6,3.24-.6,6,0,3.48.36,6,1.26,8.22.42,1.02.66,1.2,1.74,1.2,2.82,0,3.54-.12,3.54-.72,0-.18-.12-.48-.54-1.5-.66-1.44-1.02-4.02-1.02-6.66l.96-6.72Zm.84,4.02c0,.48-.12,3.36-.12,3.78,0,.66.12,1.98.3,2.88.24,1.56.48,2.16,1.26,3.24q1.02.6,2.94,1.5c.42.24,1.68.96,3.78,2.16,2.46,1.5,4.32,2.16,6.48,2.34-2.58-2.04-3.78-3.72-3.78-5.34,0-1.92,1.2-3.24,3-3.24-.12-.48-.18-.78-.18-1.02,0-1.62,1.14-2.7,3.06-2.94-.24-.42-.3-.6-.42-1.14-2.64,1.38-2.94,1.56-3.72,1.8-.9.24-3.42.6-4.5.6-1.44,0-2.46-.48-2.46-1.14,0-.42.3-.66.78-.66q.06,0,1.86.18h.3c2.46,0,4.08-.42,5.64-1.44,1.98-1.26,3.3-2.4,4.44-3.84q.66.18,2.04.72,1.08.36,1.56,1.02c1.14,1.68,2.52,2.52,4.14,2.52,1.08,0,1.8-.48,1.8-1.2,0-.66-1.26-3-2.64-4.86-1.74-2.4-2.58-2.94-5.82-3.84-2.1-.54-3.96-.9-4.86-.9-1.44,0-2.82.3-4.32.96-1.62.72-4.56,2.52-6.24,3.78-1.38,1.08-2.22,1.5-3.12,1.5-.12,0-.3-.06-.54-.12-.48,1.14-.54,1.32-.66,2.7Zm14.94,13.98c1.92,1.62,3.48,2.4,4.86,2.4,1.14,0,1.98-.6,1.98-1.38,0-.42-.3-.84-.96-1.44q-.42-.36-2.94-1.86c-1.26-.78-2.22-1.44-2.76-2.04-.48-.48-.72-.6-1.08-.6-.78,0-1.5.6-1.5,1.32,0,.96.9,2.28,2.4,3.6Zm4.8-3.12c2.46,1.44,3.9,2.04,4.86,2.04,1.02,0,1.98-.96,1.98-1.98,0-.72-.72-1.8-1.5-2.16-1.62-.72-4.74-2.28-5.52-2.76-1.68-1.02-1.86-1.08-2.52-1.08-.96,0-1.8.84-1.8,1.74,0,1.14,1.26,2.28,4.5,4.2Zm6.84-7.26c-.9,0-1.98-.24-2.94-.6-.78-.3-1.92-1.32-2.58-2.28-.54-.78-.78-.96-1.26-.96-.9,0-1.92,1.02-1.92,1.8,0,1.08.78,2.04,2.46,3,.54.3,3.24,1.8,3.48,1.86,1.14.54,3.3,1.2,3.84,1.2,1.14,0,2.22-1.02,2.22-2.16,0-.24-.12-.72-.24-.96-.12-.48-.84-1.5-.96-1.44-.96.42-1.38.54-2.1.54Zm5.82-2.58c7.74,0,10.68-.12,11.7-.42.66-.18,1.32-.78,1.32-1.26,0-.84-.72-1.44-2.04-1.74-.06,0-2.7-.24-8.04-.66-4.2-.36-6.66-.54-7.38-.66.18.36.36.66.48.84,1.02,1.5,1.38,2.52,1.44,3.9h2.52Z"/></svg>